<svg version="1.1" id="Layer_1" xmlns="http://www.w3.org/2000/svg" xmlns:xlink="http://www.w3.org/1999/xlink" x="0px" y="0px"
	 width="100%" viewBox="0 0 992 649" enable-background="new 0 0 992 649" xml:space="preserve">
<path fill="none" opacity="1.000000" stroke="#000000" stroke-linecap="round" stroke-linejoin="round" stroke-width="2.000000"
	d="
M806.500000,243.500000 
	C804.863647,243.196976 804.543762,243.884491 804.446838,245.496811 
	C803.364380,263.501862 802.262390,281.506866 800.973999,299.498138 
	C799.588989,318.839722 797.718506,338.151184 796.654541,357.508484 
	C796.288452,364.168701 795.792725,370.833008 795.427368,377.496002 
	C794.667969,391.342560 793.138672,405.152863 792.610168,419.004211 
	C792.157898,430.859283 791.211060,442.669281 790.493286,454.499603 
	C789.613098,469.007599 788.575806,483.508911 787.671936,498.010712 
	C786.924561,510.000519 786.196960,522.002014 785.477234,533.998657 
	C784.746887,546.171509 783.833374,558.333313 783.000000,570.500000 
"/>
<path fill="none" opacity="1.000000" stroke="#000000" stroke-linecap="round" stroke-linejoin="round" stroke-width="3.000000"
	d="
M835.500000,406.000000 
	C837.671509,406.450287 836.978210,408.191223 836.978821,409.500000 
	C837.003662,461.833344 836.977905,514.166687 837.046936,566.499939 
	C837.051819,570.197632 835.963501,571.602051 831.999634,571.583252 
	C800.500305,571.433838 769.000000,571.500000 737.500000,571.500000 
"/>
<path fill="none" opacity="1.000000" stroke="#000000" stroke-linecap="round" stroke-linejoin="round" stroke-width="4.000000"
	d="
M593.500000,408.500000 
	C593.500000,461.000000 593.499268,513.500000 593.500916,566.000000 
	C593.501099,571.492554 593.507446,571.498474 599.000000,571.498962 
	C624.166687,571.501282 649.333313,571.500000 674.500000,571.500000 
"/>
<path fill="none" opacity="1.000000" stroke="#000000" stroke-linecap="round" stroke-linejoin="round" stroke-width="4.000000"
	d="
M369.500000,422.500000 
	C369.500000,472.000000 369.500000,521.500000 369.500000,572.000000 
	C339.173981,572.000000 308.837006,572.000000 278.500000,572.000000 
"/>
<path fill="none" opacity="1.000000" stroke="#000000" stroke-linecap="round" stroke-linejoin="round" stroke-width="3.000000"
	d="
M125.000000,425.000000 
	C125.000000,473.833893 125.000000,522.667786 125.000000,572.000000 
	C155.831497,572.000000 186.165756,572.000000 216.500000,572.000000 
"/>
<path fill="none" opacity="1.000000" stroke="#000000" stroke-linecap="round" stroke-linejoin="round" stroke-width="2.000000"
	d="
M340.500000,187.500000 
	C340.987244,196.886215 339.439331,206.163544 338.934235,215.496445 
	C338.392151,225.512207 337.280029,235.495926 336.513916,245.501068 
	C335.620941,257.163147 334.879028,268.836853 333.986023,280.498932 
	C333.219910,290.504089 332.280029,300.495911 331.513916,310.501068 
	C330.620941,322.163147 329.879059,333.836853 328.986084,345.498932 
	C328.219971,355.504089 327.290619,365.496674 326.511383,375.500885 
	C325.628906,386.830414 324.861755,398.168854 323.991608,409.499359 
	C323.197815,419.835724 322.425873,430.175171 321.475342,440.497742 
	C320.416779,451.993195 319.765045,463.518585 318.677856,475.016815 
	C317.736328,484.974640 317.291382,495.007812 316.511688,505.000916 
	C315.627747,516.330261 314.916840,527.673645 313.975800,538.997986 
	C313.088593,549.674072 312.000000,560.333313 311.000000,571.000000 
"/>
<path fill="none" opacity="1.000000" stroke="#000000" stroke-linecap="round" stroke-linejoin="round" stroke-width="2.000000"
	d="
M623.500000,246.500000 
	C625.827515,248.751465 625.118958,251.906189 625.347168,254.513382 
	C626.365540,266.149261 626.768494,277.837524 627.518250,289.498840 
	C628.268616,301.170807 629.289490,312.826233 629.965942,324.501984 
	C630.661011,336.500031 632.045593,348.439911 632.231567,360.496429 
	C632.315369,365.931091 633.206421,371.471252 633.582397,376.994385 
	C634.684082,393.176819 636.270447,409.325684 637.464844,425.502594 
	C638.312866,436.989197 638.496399,448.532227 639.592712,459.991150 
	C640.740112,471.983948 641.240784,484.018280 642.302002,496.017517 
	C643.212402,506.312256 643.808960,516.668335 644.465515,527.002197 
	C645.313477,540.348572 646.027832,553.701355 647.461792,567.004150 
	C647.584167,568.139648 647.166626,569.333313 647.000000,570.500000 
"/>
<path fill="none" opacity="1.000000" stroke="#000000" stroke-linecap="round" stroke-linejoin="round" stroke-width="3.000000"
	d="
M36.500000,217.500000 
	C35.621689,217.441788 34.747063,217.401993 34.103062,218.252563 
	C35.686401,233.183975 37.297375,248.375946 38.909691,263.580597 
	C53.459297,261.457062 67.520645,262.317932 81.494080,262.710693 
	C91.740707,262.998718 102.067162,264.130035 112.037216,267.386047 
	C117.275368,269.096710 121.642357,271.749359 125.250000,275.762177 
	C125.250000,312.331818 125.250000,349.165924 125.250000,386.121155 
	C127.107994,386.929352 129.333069,386.336670 131.500000,386.500000 
"/>
<path fill="none" opacity="1.000000" stroke="#000000" stroke-linecap="round" stroke-linejoin="round" stroke-width="3.000000"
	d="
M930.500000,206.000000 
	C928.573608,206.286804 929.104370,207.785141 928.993530,208.999405 
	C927.865295,221.354736 926.674133,233.698639 925.203735,246.024307 
	C924.572693,251.314255 923.619507,256.630981 923.922607,262.035278 
	C920.087646,263.413391 916.890503,261.317078 913.497559,261.401886 
	C902.837524,261.668427 892.146423,261.087738 881.505432,261.610107 
	C869.654358,262.191833 857.782959,263.409119 846.526062,267.570465 
	C842.697083,268.985931 839.272949,271.366150 836.715393,275.066895 
	C836.785583,276.159943 836.984985,277.829895 836.986145,279.500000 
	C837.005432,307.500000 837.019287,335.500061 836.941040,363.499847 
	C836.937317,364.848450 838.189697,366.987793 835.500000,367.500000 
"/>
<path fill="none" opacity="1.000000" stroke="#000000" stroke-linecap="round" stroke-linejoin="round" stroke-width="2.000000"
	d="
M160.500000,245.000000 
	C161.500000,258.166656 162.430283,271.339111 163.518326,284.498474 
	C164.772858,299.671661 166.254471,314.826324 167.469498,330.002441 
	C168.295792,340.322998 168.764435,350.671692 169.519531,360.998566 
	C170.263412,371.171783 171.191742,381.331451 171.959351,391.503082 
	C172.032257,392.469238 172.514343,393.641266 171.027405,394.940674 
	C169.240036,394.365204 167.120026,393.682587 165.000000,393.000000 
"/>
<path fill="none" opacity="1.000000" stroke="#000000" stroke-linecap="round" stroke-linejoin="round" stroke-width="2.000000"
	d="
M172.000000,395.500000 
	C172.833328,405.666656 173.708771,415.830109 174.488846,426.000854 
	C175.370590,437.497131 176.115784,449.003967 177.015656,460.498779 
	C177.772888,470.171387 178.737823,479.827881 179.481842,489.501404 
	C180.391510,501.328857 181.130432,513.169373 182.010818,524.999207 
	C182.792542,535.503052 183.681900,545.998840 184.493225,556.500549 
	C184.866409,561.330750 185.166672,566.166687 185.500000,571.000000 
"/>
<path fill="none" opacity="1.000000" stroke="#000000" stroke-linecap="round" stroke-linejoin="round" stroke-width="4.000000"
	d="
M459.500000,211.500000 
	C462.724701,212.590240 461.097992,215.361084 460.863708,216.980286 
	C459.084930,229.274567 458.375824,241.671387 456.981995,253.997971 
	C456.640564,257.017487 456.075775,260.011749 455.592743,263.153809 
	C452.087677,264.413391 448.890503,262.317108 445.497559,262.401917 
	C434.837555,262.668427 424.144653,262.070343 413.505920,262.615448 
	C401.824341,263.213959 390.129608,264.354553 378.998108,268.494934 
	C372.013519,271.092865 369.500000,274.631073 369.500000,282.000000 
	C369.500000,312.833344 369.501282,343.666656 369.498871,374.500000 
	C369.498413,380.554352 369.345917,380.854675 363.493347,381.964935 
	C359.862488,382.653687 356.166656,383.000000 352.500000,383.500000 
"/>
<path fill="none" opacity="1.000000" stroke="#000000" stroke-linecap="round" stroke-linejoin="round" stroke-width="2.000000"
	d="
M190.000000,107.500000 
	C194.176971,134.369278 203.666855,159.422333 216.005463,183.497208 
	C219.158417,189.649200 222.446442,195.724152 227.000000,201.000000 
"/>
<path fill="none" opacity="1.000000" stroke="#000000" stroke-linecap="round" stroke-linejoin="round" stroke-width="4.000000"
	d="
M499.500000,207.500000 
	C501.032013,208.167603 501.886810,209.053238 502.067108,210.993759 
	C503.616882,227.671295 505.330750,244.333588 507.018280,260.998138 
	C507.052765,261.338806 507.360107,261.651855 507.694427,262.256989 
	C510.912323,263.413391 514.109497,261.317108 517.502441,261.401917 
	C528.162476,261.668427 538.856323,261.060974 549.493835,261.618011 
	C561.172363,262.229523 572.860107,263.438446 583.998901,267.503021 
	C590.999512,270.057556 593.500000,273.631042 593.500000,281.000000 
	C593.500000,310.166656 593.500000,339.333344 593.500000,368.500000 
"/>
<path fill="none" opacity="1.000000" stroke="#000000" stroke-linecap="round" stroke-linejoin="round" stroke-width="3.000000"
	d="
M829.500000,105.500000 
	C841.882690,108.106544 853.448792,113.021942 865.004578,117.989311 
	C883.320679,125.862663 901.770325,133.437271 919.934570,141.644806 
	C925.142090,143.997849 930.924194,145.278885 935.379639,148.713211 
	C934.735046,155.155899 934.117554,161.327957 933.500061,167.500000 
"/>
<path fill="none" opacity="1.000000" stroke="#000000" stroke-linecap="round" stroke-linejoin="round" stroke-width="2.000000"
	d="
M134.500000,173.500000 
	C163.500000,191.666672 192.393753,210.006790 221.573639,227.879776 
	C229.000824,232.429001 235.824127,237.852570 243.455002,242.081207 
	C246.071564,243.531189 247.627411,243.851517 250.624695,242.230591 
	C255.278061,239.714020 259.044830,235.528122 264.500000,234.500000 
"/>
<path fill="none" opacity="1.000000" stroke="#000000" stroke-linecap="round" stroke-linejoin="round" stroke-width="3.000000"
	d="
M32.500000,181.500000 
	C30.628168,181.705170 30.071306,181.042633 29.917416,179.006241 
	C29.197744,169.483078 28.188566,159.981781 27.215092,149.761307 
	C29.539337,147.223038 33.532543,146.486984 37.026337,145.064697 
	C57.988964,136.531097 78.645309,127.263367 99.391609,118.250504 
	C116.306984,110.901909 133.938797,106.470787 151.499252,101.497368 
	C167.028717,97.099152 182.925308,93.939812 197.978638,87.946350 
	C201.226471,86.653236 203.889801,87.248611 207.036209,88.401169 
	C218.223099,92.499062 229.689880,95.906509 241.516327,97.367828 
	C250.812531,98.516495 260.011627,96.581650 269.001160,94.004021 
	C274.881348,92.317947 280.954041,91.183075 286.481445,88.462280 
	C290.575867,86.446831 294.529022,86.800262 298.494781,88.512077 
	C312.795074,94.684738 328.256958,96.865730 342.986511,101.542442 
	C349.545380,103.624924 356.242188,104.905159 363.000000,106.000000 
"/>
<path fill="none" opacity="1.000000" stroke="#000000" stroke-linecap="round" stroke-linejoin="round" stroke-width="2.000000"
	d="
M287.000000,105.500000 
	C277.713318,108.329948 268.616852,111.971977 258.988556,113.424217 
	C245.943970,115.391739 233.059677,114.219246 220.497009,110.008942 
	C216.349350,108.618874 212.166672,107.333336 208.000000,106.000000 
"/>
<path fill="none" opacity="1.000000" stroke="#000000" stroke-linecap="round" stroke-linejoin="round" stroke-width="3.000000"
	d="
M364.500000,107.500000 
	C378.559082,109.902298 391.022156,116.689117 403.971344,122.068993 
	C421.128265,129.197006 438.203369,136.527191 455.091980,144.300156 
	C459.105255,146.147247 463.398132,147.671310 467.542206,149.445053 
	C466.691010,158.169037 465.845490,166.834518 465.000000,175.500000 
"/>
<path fill="none" opacity="1.000000" stroke="#000000" stroke-linecap="round" stroke-linejoin="round" stroke-width="3.000000"
	d="
M828.500000,104.999992 
	C819.000000,102.499992 809.446106,100.186043 800.013428,97.453636 
	C787.809326,93.918396 775.203674,91.651596 763.536865,86.417854 
	C760.973999,85.268173 759.214233,85.831795 756.974365,86.948555 
	C747.567444,91.638672 738.570679,97.034096 728.574402,100.702805 
	C717.489258,104.771133 707.379211,103.354080 696.977173,99.055305 
	C688.928833,95.729210 681.392883,91.518501 674.013184,86.978539 
	C671.860535,85.654243 670.016052,85.224617 667.464844,86.425316 
	C655.867004,91.883682 643.179077,93.874611 630.999023,97.496735 
	C627.005249,98.684387 622.984436,99.782845 619.003174,101.010338 
	C610.294861,103.695312 601.314636,105.291527 592.529846,107.612877 
	C581.586243,110.504662 571.424194,115.653542 561.017395,120.041290 
	C544.784973,126.885300 528.668945,134.005280 512.498779,140.997147 
	C506.814423,143.455002 501.115814,145.880005 495.428925,148.317795 
	C496.298462,157.003494 497.251648,165.493652 497.923859,174.006012 
	C498.080597,175.990601 498.474731,176.858612 500.500000,176.500000 
"/>
<path fill="none" opacity="1.000000" stroke="#000000" stroke-linecap="round" stroke-linejoin="round" stroke-width="2.000000"
	d="
M301.500000,124.000000 
	C297.851807,135.006165 294.627502,146.140518 290.587494,157.032455 
	C285.439697,170.910980 278.585968,183.869446 271.000000,196.500000 
"/>
<path fill="none" opacity="1.000000" stroke="#000000" stroke-linecap="round" stroke-linejoin="round" stroke-width="2.000000"
	d="
M603.500000,173.500000 
	C629.166687,173.500000 654.833435,173.470901 680.499634,173.581970 
	C681.848267,173.587814 684.687073,171.792511 684.500000,175.500000 
"/>
<path fill="none" opacity="1.000000" stroke="#000000" stroke-linecap="round" stroke-linejoin="round" stroke-width="3.000000"
	d="
M247.000000,123.000000 
	C247.000000,144.333328 247.000000,165.666672 247.000000,187.000000 
"/>
<path fill="none" opacity="1.000000" stroke="#000000" stroke-linecap="round" stroke-linejoin="round" stroke-width="2.000000"
	d="
M844.500000,110.000000 
	C843.913025,116.299919 841.098328,121.997307 839.334229,127.950874 
	C834.167847,145.386017 829.916321,162.952988 827.393555,180.985107 
	C826.135925,189.974091 825.493103,198.999237 824.500000,208.000000 
"/>
<path fill="none" opacity="1.000000" stroke="#000000" stroke-linecap="round" stroke-linejoin="round" stroke-width="2.000000"
	d="
M745.500000,173.500000 
	C772.833313,173.500000 800.166687,173.500000 827.500000,173.500000 
"/>
<path fill="none" opacity="1.000000" stroke="#000000" stroke-linecap="round" stroke-linejoin="round" stroke-width="2.000000"
	d="
M585.000000,111.000000 
	C588.279663,118.412430 590.550110,126.125626 592.610413,133.970993 
	C595.321655,144.294876 598.628357,154.418350 600.665894,164.967957 
	C603.292725,178.568375 604.971741,192.225082 606.005737,205.999573 
	C606.131042,207.669327 606.333374,209.333328 606.500061,211.000000 
"/>
<path fill="none" opacity="1.000000" stroke="#000000" stroke-linecap="round" stroke-linejoin="round" stroke-width="2.000000"
	d="
M378.000000,112.000000 
	C374.242798,120.019211 372.136871,128.599991 369.501099,137.000336 
	C365.956726,148.296463 363.488434,159.816864 361.344635,171.471420 
	C359.297546,182.600342 358.265656,193.801971 357.063629,205.006821 
	C357.051666,205.118576 358.000000,205.333344 358.500000,205.500000 
"/>
<path fill="none" opacity="1.000000" stroke="#000000" stroke-linecap="round" stroke-linejoin="round" stroke-width="2.000000"
	d="
M117.000000,112.000000 
	C124.061729,130.313446 128.771484,149.282516 132.460098,168.507660 
	C135.404434,183.853592 137.368225,199.334961 137.500000,215.000000 
"/>
<path fill="none" opacity="1.000000" stroke="#000000" stroke-linecap="round" stroke-linejoin="round" stroke-width="2.000000"
	d="
M774.000000,91.000000 
	C770.300720,98.527031 763.224792,102.894485 756.841248,107.268311 
	C744.486938,115.733192 730.911438,122.058556 715.500000,123.000000 
"/>
<path fill="none" opacity="1.000000" stroke="#000000" stroke-linecap="round" stroke-linejoin="round" stroke-width="2.000000"
	d="
M359.500000,174.000000 
	C354.063782,176.477890 349.512878,180.354080 344.495667,183.493073 
	C331.675385,191.513931 318.851501,199.529373 305.993805,207.489960 
	C297.026093,213.042130 288.013336,218.522186 278.974060,223.956863 
	C278.267975,224.381378 277.597015,224.597031 277.500000,225.500000 
"/>
<path fill="none" opacity="1.000000" stroke="#000000" stroke-linecap="round" stroke-linejoin="round" stroke-width="2.000000"
	d="
M657.500000,91.000000 
	C656.946655,93.270363 658.749329,94.259270 660.008972,95.490852 
	C675.417480,110.556435 692.963440,121.440872 715.000000,123.500000 
"/>
<path fill="none" opacity="1.000000" stroke="#000000" stroke-linecap="round" stroke-linejoin="round" stroke-width="2.000000"
	d="
M282.500000,317.500000 
	C282.500000,311.333344 282.500000,305.166656 282.500000,298.500000 
	C270.171173,298.500000 257.835571,298.500000 245.500000,298.500000 
"/>
<path fill="none" opacity="1.000000" stroke="#000000" stroke-linecap="round" stroke-linejoin="round" stroke-width="2.000000"
	d="
M625.000000,100.000000 
	C625.786987,102.639008 627.962402,101.431274 629.500549,101.446823 
	C639.668884,101.549667 649.838806,101.500000 660.500000,101.500000 
	C660.500000,108.491455 660.500000,114.995728 660.500000,121.500000 
"/>
<path fill="none" opacity="1.000000" stroke="#000000" stroke-linecap="round" stroke-linejoin="round" stroke-width="2.000000"
	d="
M400.500000,226.500000 
	C400.500000,219.000000 400.500000,211.500000 400.500000,203.500000 
	C389.838531,203.500000 379.169281,203.500000 368.500000,203.500000 
"/>
<path fill="none" opacity="1.000000" stroke="#000000" stroke-linecap="round" stroke-linejoin="round" stroke-width="2.000000"
	d="
M915.000000,208.500000 
	C914.166687,215.500000 913.068298,222.480972 912.564209,229.504608 
	C911.867615,239.210785 910.802795,248.864410 909.514465,258.501923 
	C909.404968,259.320648 909.500000,260.166656 909.500000,261.000000 
"/>
<path fill="none" opacity="1.000000" stroke="#000000" stroke-linecap="round" stroke-linejoin="round" stroke-width="2.000000"
	d="
M548.500000,193.500000 
	C548.500000,186.662598 548.500000,179.825211 548.500000,172.500000 
	C537.505310,172.500000 527.002625,172.500000 516.500000,172.500000 
"/>
<path fill="none" opacity="1.000000" stroke="#000000" stroke-linecap="round" stroke-linejoin="round" stroke-width="2.000000"
	d="
M53.000000,261.500000 
	C51.436687,247.340103 49.873375,233.180206 48.252617,218.500000 
	C45.518494,218.500000 42.509247,218.500000 39.500000,218.500000 
"/>
<path fill="none" opacity="1.000000" stroke="#000000" stroke-linecap="round" stroke-linejoin="round" stroke-width="2.000000"
	d="
M737.000000,570.500000 
	C735.774658,565.032104 736.956116,559.491211 736.339600,553.500000 
	C724.838074,553.500000 713.169067,553.500000 701.500000,553.500000 
"/>
<path fill="none" opacity="1.000000" stroke="#000000" stroke-linecap="round" stroke-linejoin="round" stroke-width="2.000000"
	d="
M821.500000,208.500000 
	C832.000000,208.500000 842.500000,208.500000 853.500000,208.500000 
	C853.500000,216.159424 853.500000,223.829712 853.500000,231.500000 
"/>
<path fill="none" opacity="1.000000" stroke="#000000" stroke-linecap="round" stroke-linejoin="round" stroke-width="2.000000"
	d="
M516.500000,212.500000 
	C517.166626,220.500000 517.709778,228.512756 518.534241,236.496460 
	C519.379395,244.679123 520.499939,252.833344 521.499939,261.000000 
"/>
<path fill="none" opacity="1.000000" stroke="#000000" stroke-linecap="round" stroke-linejoin="round" stroke-width="2.000000"
	d="
M446.500000,215.500000 
	C445.833313,223.166672 445.289917,230.846603 444.465790,238.496307 
	C443.620117,246.346268 442.500000,254.166672 441.500000,262.000000 
"/>
<path fill="none" opacity="1.000000" stroke="#000000" stroke-linecap="round" stroke-linejoin="round" stroke-width="2.000000"
	d="
M389.500000,405.500000 
	C389.500000,398.333344 389.500000,391.166656 389.500000,383.733368 
	C383.207886,382.883453 376.783630,384.277466 370.500000,383.000000 
"/>
<path fill="none" opacity="1.000000" stroke="#000000" stroke-linecap="round" stroke-linejoin="round" stroke-width="2.000000"
	d="
M809.000000,174.500000 
	C808.500000,181.166672 807.871948,187.827057 807.544678,194.502197 
	C807.323364,199.016357 807.518921,203.531250 806.604980,208.021362 
	C806.373535,209.158081 805.177612,211.850891 808.500000,211.500000 
"/>
<path fill="none" opacity="1.000000" stroke="#000000" stroke-linecap="round" stroke-linejoin="round" stroke-width="2.000000"
	d="
M284.500000,114.000000 
	C273.252502,118.500519 261.589752,121.309639 249.497406,121.951241 
	C238.747147,122.521637 228.315720,120.262436 218.005936,117.478027 
	C215.466125,116.792099 213.000000,115.833336 210.500000,115.000000 
"/>
<path fill="none" opacity="1.000000" stroke="#000000" stroke-linecap="round" stroke-linejoin="round" stroke-width="2.000000"
	d="
M356.500000,240.500000 
	C360.274048,242.790649 358.573547,246.928879 359.259247,250.052841 
	C361.027985,258.110718 363.761414,265.788147 366.512756,273.495453 
	C366.967102,274.768158 367.776123,275.825470 369.000000,276.500000 
"/>
<path fill="none" opacity="1.000000" stroke="#000000" stroke-linecap="round" stroke-linejoin="round" stroke-width="2.000000"
	d="
M631.500000,361.000000 
	C625.166687,363.666656 619.017456,367.012329 612.444397,368.795013 
	C606.711121,370.349945 600.500000,369.993378 594.500000,369.000000 
"/>
<path fill="none" opacity="1.000000" stroke="#000000" stroke-linecap="round" stroke-linejoin="round" stroke-width="2.000000"
	d="
M619.500000,174.500000 
	C620.333313,186.500000 621.166626,198.500000 622.000000,210.500000 
"/>
<path fill="none" opacity="1.000000" stroke="#000000" stroke-linecap="round" stroke-linejoin="round" stroke-width="2.000000"
	d="
M189.000000,92.000000 
	C190.115692,96.632774 189.102570,101.341576 189.562439,105.500000 
	C177.504623,105.500000 165.502319,105.500000 153.500000,105.500000 
"/>
<path fill="none" opacity="1.000000" stroke="#000000" stroke-linecap="round" stroke-linejoin="round" stroke-width="2.000000"
	d="
M604.500000,211.500000 
	C615.000000,211.500000 625.500000,211.500000 636.500000,211.500000 
	C636.500000,218.825760 636.500000,226.162872 636.500000,233.500000 
"/>
<path fill="none" opacity="1.000000" stroke="#000000" stroke-linecap="round" stroke-linejoin="round" stroke-width="2.000000"
	d="
M40.000000,145.000000 
	C40.833332,152.333328 41.503296,159.690384 42.563183,166.990829 
	C43.168774,171.162094 42.737415,175.508682 44.500000,179.500000 
"/>
<path fill="none" opacity="1.000000" stroke="#000000" stroke-linecap="round" stroke-linejoin="round" stroke-width="3.000000"
	d="
M233.500000,35.500000 
	C229.368805,32.862278 227.494598,33.278767 224.472321,37.539009 
	C225.273773,39.942226 226.886932,40.999935 229.498627,41.059727 
	C231.646805,41.108898 234.031235,41.912476 233.894714,44.494434 
	C233.730072,47.608059 231.262283,48.191513 228.498230,48.030392 
	C226.408020,47.908554 224.411118,47.844421 223.500000,45.500000 
"/>
<path fill="none" opacity="1.000000" stroke="#000000" stroke-linecap="round" stroke-linejoin="round" stroke-width="3.000000"
	d="
M700.500000,38.500000 
	C696.368835,35.862278 694.494629,36.278767 691.472351,40.539009 
	C692.273804,42.942226 693.886963,43.999931 696.498657,44.059723 
	C698.646790,44.108898 701.031128,44.912472 700.894653,47.494431 
	C700.730042,50.608051 698.262268,51.191509 695.498230,51.030392 
	C693.408081,50.908554 691.411133,50.844421 690.500000,48.500000 
"/>
<path fill="none" opacity="1.000000" stroke="#000000" stroke-linecap="round" stroke-linejoin="round" stroke-width="3.000000"
	d="
M715.000000,104.500000 
	C716.053040,109.638077 715.709290,114.863136 715.409058,119.994675 
	C714.657898,132.832962 715.234863,145.667557 715.000000,158.500000 
"/>
<path fill="none" opacity="1.000000" stroke="#000000" stroke-linecap="round" stroke-linejoin="round" stroke-width="2.000000"
	d="
M629.500000,389.500000 
	C629.500000,383.000000 629.500000,376.500000 629.500000,369.765015 
	C624.555725,368.830994 619.435425,370.301880 614.500000,369.000000 
"/>
<path fill="none" opacity="1.000000" stroke="#000000" stroke-linecap="round" stroke-linejoin="round" stroke-width="2.000000"
	d="
M508.500000,144.000000 
	C510.255402,148.511139 509.550812,153.359726 510.406403,158.017197 
	C511.311096,162.941956 511.475281,168.002731 511.984985,173.230377 
	C510.844757,173.318588 509.672363,173.409302 508.500000,173.500015 
"/>
<path fill="none" opacity="1.000000" stroke="#000000" stroke-linecap="round" stroke-linejoin="round" stroke-width="2.000000"
	d="
M232.500015,168.000015 
	C231.666687,169.500015 230.924774,171.060120 229.984772,172.490005 
	C224.890198,180.239655 222.838303,188.217926 227.429138,197.036880 
	C228.398514,198.899048 225.514587,202.840530 230.500000,202.500000 
"/>
<path fill="none" opacity="1.000000" stroke="#000000" stroke-linecap="round" stroke-linejoin="round" stroke-width="2.000000"
	d="
M455.000000,145.000000 
	C453.515442,155.297440 452.120941,165.605057 451.500000,176.000000 
"/>
<path fill="none" opacity="1.000000" stroke="#000000" stroke-linecap="round" stroke-linejoin="round" stroke-width="2.000000"
	d="
M248.500000,197.500000 
	C259.000000,197.500000 269.500000,197.500000 280.500000,197.500000 
	C280.500000,204.825760 280.500000,212.162872 280.500000,219.500000 
"/>
<path fill="none" opacity="1.000000" stroke="#000000" stroke-linecap="round" stroke-linejoin="round" stroke-width="2.000000"
	d="
M203.500000,88.000000 
	C203.576004,96.879036 206.933884,105.052498 209.018188,113.495506 
	C211.747330,124.550652 216.306671,134.962708 220.500000,145.500000 
"/>
<path fill="none" opacity="1.000000" stroke="#000000" stroke-linecap="round" stroke-linejoin="round" stroke-width="2.000000"
	d="
M436.500000,176.500000 
	C449.000000,176.500000 461.500000,176.500000 474.500000,176.500000 
	C474.500000,183.492065 474.500000,190.496033 474.500000,197.500000 
"/>
<path fill="none" opacity="1.000000" stroke="#000000" stroke-linecap="round" stroke-linejoin="round" stroke-width="2.000000"
	d="
M607.500000,250.500000 
	C604.458557,250.114868 603.184875,251.028534 602.309509,254.451294 
	C600.480957,261.601288 599.328613,269.201294 594.000000,275.000000 
"/>
<path fill="none" opacity="1.000000" stroke="#000000" stroke-linecap="round" stroke-linejoin="round" stroke-width="2.000000"
	d="
M305.000000,92.000000 
	C303.681152,98.437012 305.410370,105.092438 303.542999,111.512512 
	C302.935944,113.599556 303.107300,115.923042 302.434387,117.978516 
	C301.479034,120.896523 301.671265,123.666664 302.500000,126.500000 
"/>
<path fill="none" opacity="1.000000" stroke="#000000" stroke-linecap="round" stroke-linejoin="round" stroke-width="2.000000"
	d="
M157.000000,188.500000 
	C155.964523,196.226181 157.971008,203.817505 158.144882,211.496719 
	C158.168915,212.557526 158.233810,213.847549 158.500000,215.000000 
"/>
<path fill="none" opacity="1.000000" stroke="#000000" stroke-linecap="round" stroke-linejoin="round" stroke-width="2.000000"
	d="
M275.500000,141.500000 
	C272.068665,150.985947 266.446655,159.314575 261.499786,167.999878 
	C260.834747,169.167480 260.166687,170.333344 259.500000,171.500015 
"/>
<path fill="none" opacity="1.000000" stroke="#000000" stroke-linecap="round" stroke-linejoin="round" stroke-width="2.000000"
	d="
M244.500000,553.500000 
	C251.500000,553.333313 258.547699,552.615723 265.481293,553.216064 
	C269.359039,553.551758 273.211609,552.299805 277.500000,553.658447 
	C277.500000,561.159424 277.500000,568.829712 277.500000,576.500000 
"/>
<path fill="none" opacity="1.000000" stroke="#000000" stroke-linecap="round" stroke-linejoin="round" stroke-width="2.000000"
	d="
M827.000000,248.000000 
	C828.882507,256.977509 830.752747,265.959045 835.500000,274.000000 
"/>
<path fill="none" opacity="1.000000" stroke="#000000" stroke-linecap="round" stroke-linejoin="round" stroke-width="2.000000"
	d="
M130.500000,215.500000 
	C141.333328,215.500000 152.166672,215.500000 163.500000,215.500000 
	C163.500000,222.825760 163.500000,230.162872 163.500000,237.500000 
"/>
<path fill="none" opacity="1.000000" stroke="#000000" stroke-linecap="round" stroke-linejoin="round" stroke-width="2.000000"
	d="
M921.999939,144.500000 
	C921.166626,152.500000 920.333313,160.500000 919.499939,168.500000 
"/>
<path fill="none" opacity="1.000000" stroke="#000000" stroke-linecap="round" stroke-linejoin="round" stroke-width="2.000000"
	d="
M73.500000,180.500000 
	C73.500000,187.833328 73.500000,195.166672 73.500000,202.500000 
"/>
<path fill="none" opacity="1.000000" stroke="#000000" stroke-linecap="round" stroke-linejoin="round" stroke-width="2.000000"
	d="
M741.500000,295.500000 
	C741.500000,302.833344 741.500000,310.166656 741.500000,317.500000 
"/>
<path fill="none" opacity="1.000000" stroke="#000000" stroke-linecap="round" stroke-linejoin="round" stroke-width="2.000000"
	d="
M858.500000,368.500000 
	C858.500000,375.833344 858.500000,383.166656 858.500000,390.500000 
"/>
<path fill="none" opacity="1.000000" stroke="#000000" stroke-linecap="round" stroke-linejoin="round" stroke-width="3.000000"
	d="
M731.000000,45.000000 
	C732.166687,45.000000 733.359497,45.157051 734.494629,44.967690 
	C736.946472,44.558666 738.114685,43.066883 738.023682,40.499161 
	C737.927979,37.800785 736.493530,36.784149 734.002136,37.022480 
	C732.833801,37.134251 731.544128,36.475704 730.000000,37.917728 
	C730.000000,42.154766 730.000000,46.827381 730.000000,51.500000 
"/>
<path fill="none" opacity="1.000000" stroke="#000000" stroke-linecap="round" stroke-linejoin="round" stroke-width="3.000000"
	d="
M264.000000,42.000000 
	C265.166656,42.000000 266.359558,42.157047 267.494598,41.967690 
	C269.946442,41.558662 271.114777,40.066883 271.023743,37.499157 
	C270.928040,34.800785 269.493500,33.784145 267.002136,34.022484 
	C265.833832,34.134247 264.544159,33.475704 263.000000,34.917728 
	C263.000000,39.154766 263.000000,43.827381 263.000000,48.500000 
"/>
<path fill="none" opacity="1.000000" stroke="#000000" stroke-linecap="round" stroke-linejoin="round" stroke-width="2.000000"
	d="
M134.500015,254.500000 
	C132.166672,261.000000 129.843399,267.503662 127.475739,273.991150 
	C127.329201,274.392670 126.833344,274.666687 126.500008,275.000000 
"/>
<path fill="none" opacity="1.000000" stroke="#000000" stroke-linecap="round" stroke-linejoin="round" stroke-width="2.000000"
	d="
M829.000000,106.500000 
	C827.884766,113.477417 828.794922,120.503052 828.500000,127.500000 
"/>
<path fill="none" opacity="1.000000" stroke="#000000" stroke-linecap="round" stroke-linejoin="round" stroke-width="2.000000"
	d="
M946.500000,169.500000 
	C946.500000,176.166672 946.500000,182.833328 946.500000,189.500000 
"/>
<path fill="none" opacity="1.000000" stroke="#000000" stroke-linecap="round" stroke-linejoin="round" stroke-width="2.000000"
	d="
M189.000000,107.500000 
	C187.835709,114.141724 188.831558,120.837456 188.500000,127.500000 
"/>
<path fill="none" opacity="1.000000" stroke="#000000" stroke-linecap="round" stroke-linejoin="round" stroke-width="2.000000"
	d="
M798.500000,360.500000 
	C806.666016,363.689575 814.264526,368.652466 823.500000,368.500000 
"/>
<path fill="none" opacity="1.000000" stroke="#000000" stroke-linecap="round" stroke-linejoin="round" stroke-width="2.000000"
	d="
M291.000000,88.000000 
	C292.513580,91.361076 290.681244,94.450951 289.904968,97.475609 
	C286.955750,108.966728 284.480164,120.622169 279.532288,131.514679 
	C279.281250,132.067307 279.500000,132.833328 279.500000,133.500000 
"/>
<path fill="none" opacity="1.000000" stroke="#000000" stroke-linecap="round" stroke-linejoin="round" stroke-width="2.000000"
	d="
M364.000000,108.500000 
	C362.853546,114.472786 363.811554,120.504021 363.500000,126.500000 
"/>
<path fill="none" opacity="1.000000" stroke="#000000" stroke-linecap="round" stroke-linejoin="round" stroke-width="2.000000"
	d="
M268.500000,179.500000 
	C271.809143,185.541473 268.939056,191.229858 267.500000,197.000000 
"/>
<path fill="none" opacity="1.000000" stroke="#000000" stroke-linecap="round" stroke-linejoin="round" stroke-width="2.000000"
	d="
M335.500000,120.500000 
	C334.000000,120.500000 332.500000,120.500000 330.347992,120.500000 
	C331.020752,122.156296 328.833252,124.443947 332.991516,124.661835 
	C336.025848,124.820824 335.990997,125.486130 334.500000,129.500000 
"/>
<path fill="none" opacity="1.000000" stroke="#000000" stroke-linecap="round" stroke-linejoin="round" stroke-width="2.000000"
	d="
M250.500000,578.500000 
	C255.068436,579.177185 254.740036,575.674500 254.937149,572.995361 
	C255.151825,570.077820 253.953033,568.046936 250.500000,568.500000 
"/>
<path fill="none" opacity="1.000000" stroke="#000000" stroke-linecap="round" stroke-linejoin="round" stroke-width="2.000000"
	d="
M831.500000,392.500000 
	C836.068420,393.177216 835.739990,389.674469 835.937073,386.995361 
	C836.151733,384.077789 834.953064,382.046967 831.500000,382.500000 
"/>
<path fill="none" opacity="1.000000" stroke="#000000" stroke-linecap="round" stroke-linejoin="round" stroke-width="2.000000"
	d="
M744.500000,159.500000 
	C744.500000,166.833328 744.500000,174.166672 744.500000,181.500000 
"/>
<path fill="none" opacity="1.000000" stroke="#000000" stroke-linecap="round" stroke-linejoin="round" stroke-width="2.000000"
	d="
M748.500000,38.000000 
	C748.500000,42.500000 748.500000,47.000000 748.500000,51.500000 
"/>
<path fill="none" opacity="1.000000" stroke="#000000" stroke-linecap="round" stroke-linejoin="round" stroke-width="2.000000"
	d="
M122.500000,423.500000 
	C128.084595,425.228638 133.828156,424.254700 139.500000,424.500000 
"/>
<path fill="none" opacity="1.000000" stroke="#000000" stroke-linecap="round" stroke-linejoin="round" stroke-width="2.000000"
	d="
M672.500000,38.000000 
	C672.500000,42.500000 672.500000,47.000000 672.500000,51.500000 
"/>
<path fill="none" opacity="1.000000" stroke="#000000" stroke-linecap="round" stroke-linejoin="round" stroke-width="2.000000"
	d="
M281.500000,35.000000 
	C281.500000,39.500000 281.500000,44.000000 281.500000,48.500000 
"/>
<path fill="none" opacity="1.000000" stroke="#000000" stroke-linecap="round" stroke-linejoin="round" stroke-width="2.000000"
	d="
M205.500000,35.000000 
	C205.500000,39.500000 205.500000,44.000000 205.500000,48.500000 
"/>
<path fill="none" opacity="1.000000" stroke="#000000" stroke-linecap="round" stroke-linejoin="round" stroke-width="2.000000"
	d="
M138.500000,383.500000 
	C134.079758,383.238983 130.458389,380.124786 126.000000,380.000000 
"/>
<path fill="none" opacity="1.000000" stroke="#000000" stroke-linecap="round" stroke-linejoin="round" stroke-width="2.000000"
	d="
M525.500000,197.500000 
	C523.816650,197.500000 522.133362,197.500000 520.508728,197.500000 
	C520.349060,195.130280 522.016296,194.461227 523.054810,193.563416 
	C524.422485,192.381073 524.734375,191.045776 524.473083,189.504562 
	C524.074890,187.155640 522.172668,187.487991 520.500000,187.500000 
"/>
<path fill="none" opacity="1.000000" stroke="#000000" stroke-linecap="round" stroke-linejoin="round" stroke-width="3.000000"
	d="
M256.000000,35.000000 
	C256.000000,39.000000 256.000000,43.000000 256.000000,47.000000 
"/>
<path fill="none" opacity="1.000000" stroke="#000000" stroke-linecap="round" stroke-linejoin="round" stroke-width="3.000000"
	d="
M723.000000,38.000000 
	C723.000000,42.000000 723.000000,46.000000 723.000000,50.000000 
"/>
<path fill="none" opacity="1.000000" stroke="#000000" stroke-linecap="round" stroke-linejoin="round" stroke-width="2.000000"
	d="
M606.500000,394.500000 
	C604.816650,394.500000 603.133362,394.500000 601.508728,394.500000 
	C601.349060,392.130280 603.016296,391.461243 604.054871,390.563446 
	C605.422485,389.381104 605.734314,388.045776 605.473083,386.504547 
	C605.074951,384.155640 603.172668,384.488007 601.500000,384.500000 
"/>
<path fill="none" opacity="1.000000" stroke="#000000" stroke-linecap="round" stroke-linejoin="round" stroke-width="2.000000"
	d="
M597.500000,394.500000 
	C595.816650,394.500000 594.133362,394.500000 592.508728,394.500000 
	C592.349060,392.130280 594.016296,391.461212 595.054810,390.563416 
	C596.422485,389.381073 596.734375,388.045776 596.473083,386.504547 
	C596.074951,384.155640 594.172668,384.488007 592.500000,384.500000 
"/>
<path fill="none" opacity="1.000000" stroke="#000000" stroke-linecap="round" stroke-linejoin="round" stroke-width="2.000000"
	d="
M606.500000,407.500000 
	C602.505371,407.795074 598.461365,406.906067 594.500000,408.000000 
"/>
<path fill="none" opacity="1.000000" stroke="#000000" stroke-linecap="round" stroke-linejoin="round" stroke-width="2.000000"
	d="
M161.500000,130.500000 
	C159.661789,130.386978 157.772568,130.835022 155.702408,129.883865 
	C157.733154,127.464478 161.048096,125.640160 160.394272,122.019089 
	C160.086945,120.317001 158.065369,120.381241 156.500000,120.500000 
"/>
<path fill="none" opacity="1.000000" stroke="#000000" stroke-linecap="round" stroke-linejoin="round" stroke-width="2.000000"
	d="
M441.500000,191.500000 
	C443.338196,191.613022 445.227417,191.164978 447.299652,192.117081 
	C444.913940,194.889069 445.252563,198.926651 442.500000,201.500000 
"/>
<path fill="none" opacity="1.000000" stroke="#000000" stroke-linecap="round" stroke-linejoin="round" stroke-width="2.000000"
	d="
M707.000000,311.000000 
	C707.998352,313.953796 707.288391,317.002502 707.500000,320.000000 
"/>
<path fill="none" opacity="1.000000" stroke="#000000" stroke-linecap="round" stroke-linejoin="round" stroke-width="4.000000"
	d="
M612.000000,226.500000 
	C610.885071,228.933243 612.895264,233.530060 607.500000,233.000000 
"/>
<path fill="none" opacity="1.000000" stroke="#000000" stroke-linecap="round" stroke-linejoin="round" stroke-width="2.000000"
	d="
M824.500000,223.500000 
	C826.506897,223.500000 828.513733,223.500000 830.723999,223.500000 
	C830.155273,227.582916 827.783203,230.312225 826.500000,233.500000 
"/>
<path fill="none" opacity="1.000000" stroke="#000000" stroke-linecap="round" stroke-linejoin="round" stroke-width="2.000000"
	d="
M819.000000,224.000000 
	C819.998352,226.953796 819.288391,230.002502 819.500000,233.000000 
"/>
<path fill="none" opacity="1.000000" stroke="#000000" stroke-linecap="round" stroke-linejoin="round" stroke-width="2.000000"
	d="
M372.500000,227.500000 
	C374.188263,226.000000 374.008392,224.382416 372.466492,223.038437 
	C371.302429,222.023727 369.795013,222.124008 368.508667,223.012543 
	C366.404297,224.466080 367.810913,226.000000 368.500000,227.500000 
"/>
<path fill="none" opacity="1.000000" stroke="#000000" stroke-linecap="round" stroke-linejoin="round" stroke-width="3.000000"
	d="
M251.000000,212.500000 
	C251.007370,215.710220 251.111786,218.987640 246.500000,219.000000 
"/>
<path fill="none" opacity="1.000000" stroke="#000000" stroke-linecap="round" stroke-linejoin="round" stroke-width="2.000000"
	d="
M622.500000,118.499985 
	C623.164612,118.162651 623.829224,117.825317 625.500000,116.977325 
	C625.500000,120.254906 625.500000,123.127449 625.500000,126.000000 
"/>
<path fill="none" opacity="1.000000" stroke="#000000" stroke-linecap="round" stroke-linejoin="round" stroke-width="2.000000"
	d="
M450.500000,214.500000 
	C446.500000,214.500000 442.500000,214.500000 438.500000,214.500000 
"/>
<path fill="none" opacity="1.000000" stroke="#000000" stroke-linecap="round" stroke-linejoin="round" stroke-width="3.000000"
	d="
M239.000000,33.500000 
	C239.000000,38.500000 239.000000,43.500000 239.000000,48.500000 
"/>
<path fill="none" opacity="1.000000" stroke="#000000" stroke-linecap="round" stroke-linejoin="round" stroke-width="3.000000"
	d="
M706.000000,36.500000 
	C706.000000,41.500000 706.000000,46.500000 706.000000,51.500000 
"/>
<path fill="none" opacity="1.000000" stroke="#000000" stroke-linecap="round" stroke-linejoin="round" stroke-width="3.000000"
	d="
M248.000000,40.000000 
	C245.333328,40.000000 242.666672,40.000000 240.000000,40.000000 
"/>
<path fill="none" opacity="1.000000" stroke="#000000" stroke-linecap="round" stroke-linejoin="round" stroke-width="3.000000"
	d="
M249.000000,33.500000 
	C249.000000,38.500000 249.000000,43.500000 249.000000,48.500000 
"/>
<path fill="none" opacity="1.000000" stroke="#000000" stroke-linecap="round" stroke-linejoin="round" stroke-width="2.000000"
	d="
M135.500000,403.500000 
	C136.164612,403.162659 136.829239,402.825317 138.500000,401.977295 
	C138.500000,405.254913 138.500000,408.127441 138.500000,411.000000 
"/>
<path fill="none" opacity="1.000000" stroke="#000000" stroke-linecap="round" stroke-linejoin="round" stroke-width="3.000000"
	d="
M716.000000,36.500000 
	C716.000000,41.500000 716.000000,46.500000 716.000000,51.500000 
"/>
<path fill="none" opacity="1.000000" stroke="#000000" stroke-linecap="round" stroke-linejoin="round" stroke-width="2.000000"
	d="
M341.500000,387.500000 
	C336.460724,389.226196 331.858765,392.145081 326.500000,393.000000 
"/>
<path fill="none" opacity="1.000000" stroke="#000000" stroke-linecap="round" stroke-linejoin="round" stroke-width="3.000000"
	d="
M715.000000,43.000000 
	C712.333313,43.000000 709.666687,43.000000 707.000000,43.000000 
"/>
<path fill="none" opacity="1.000000" stroke="#000000" stroke-linecap="round" stroke-linejoin="round" stroke-width="2.000000"
	d="
M126.499992,403.500000 
	C127.164612,403.162659 127.829231,402.825317 129.500000,401.977295 
	C129.500000,405.254913 129.500000,408.127441 129.500000,411.000000 
"/>
<path fill="none" opacity="1.000000" stroke="#000000" stroke-linecap="round" stroke-linejoin="round" stroke-width="2.000000"
	d="
M791.500000,121.500000 
	C792.164612,121.162666 792.829224,120.825333 794.500000,119.977325 
	C794.500000,123.254906 794.500000,126.127449 794.500000,129.000000 
"/>
<path fill="none" opacity="1.000000" stroke="#000000" stroke-linecap="round" stroke-linejoin="round" stroke-width="2.000000"
	d="
M806.500000,127.500000 
	C806.581726,125.355385 806.591980,123.380989 803.498962,123.460678 
	C801.355042,123.515923 800.515930,124.355049 800.460693,126.498985 
	C800.381042,129.592010 802.355408,129.581711 804.500000,129.500000 
"/>
<path fill="none" opacity="1.000000" stroke="#000000" stroke-linecap="round" stroke-linejoin="round" stroke-width="3.000000"
	d="
M511.500000,189.500000 
	C513.810303,189.095932 513.940186,189.091095 513.974060,190.000961 
	C514.054626,192.164642 514.000000,194.333328 514.000000,196.500000 
"/>
<path fill="none" opacity="1.000000" stroke="#000000" stroke-linecap="round" stroke-linejoin="round" stroke-width="2.000000"
	d="
M131.500000,235.500000 
	C133.335342,235.469879 135.492477,235.911835 135.492477,233.000000 
	C135.492477,230.088165 133.335342,230.530121 131.500000,230.500000 
"/>
<path fill="none" opacity="1.000000" stroke="#000000" stroke-linecap="round" stroke-linejoin="round" stroke-width="2.000000"
	d="
M632.500000,121.500000 
	C634.335327,121.469887 636.492493,121.911835 636.492493,119.000000 
	C636.492493,116.088165 634.335327,116.530113 632.500000,116.500000 
"/>
<path fill="none" opacity="1.000000" stroke="#000000" stroke-linecap="round" stroke-linejoin="round" stroke-width="3.000000"
	d="
M909.500000,185.500000 
	C911.810303,185.095947 911.940247,185.091110 911.974121,186.000961 
	C912.054688,188.164642 912.000000,190.333328 912.000000,192.500000 
"/>
<path fill="none" opacity="1.000000" stroke="#000000" stroke-linecap="round" stroke-linejoin="round" stroke-width="3.000000"
	d="
M41.500000,196.500000 
	C42.712116,194.772751 43.728619,194.896469 43.950249,197.005234 
	C44.175480,199.148224 44.000000,201.333328 44.000000,203.500000 
"/>
<path fill="none" opacity="1.000000" stroke="#000000" stroke-linecap="round" stroke-linejoin="round" stroke-width="2.000000"
	d="
M805.500000,119.500000 
	C802.416931,119.416916 800.236023,120.236015 801.000000,124.000000 
"/>
<path fill="none" opacity="1.000000" stroke="#000000" stroke-linecap="round" stroke-linejoin="round" stroke-width="2.000000"
	d="
M735.000000,45.499992 
	C736.833313,47.499992 738.666687,49.499992 740.500000,51.499992 
"/>
<path fill="none" opacity="1.000000" stroke="#000000" stroke-linecap="round" stroke-linejoin="round" stroke-width="2.000000"
	d="
M268.000000,42.499992 
	C269.833344,44.499992 271.666687,46.499992 273.500000,48.499992 
"/>
<path fill="none" opacity="1.000000" stroke="#000000" stroke-linecap="round" stroke-linejoin="round" stroke-width="3.000000"
	d="
M211.500000,34.000000 
	C207.500000,34.000000 203.500000,34.000000 199.500000,34.000000 
"/>
<path fill="none" opacity="1.000000" stroke="#000000" stroke-linecap="round" stroke-linejoin="round" stroke-width="3.000000"
	d="
M678.500000,37.000000 
	C674.500000,37.000000 670.500000,37.000000 666.500000,37.000000 
"/>
<path fill="none" opacity="1.000000" stroke="#000000" stroke-linecap="round" stroke-linejoin="round" stroke-width="3.000000"
	d="
M287.500000,34.000000 
	C283.500000,34.000000 279.500000,34.000000 275.500000,34.000000 
"/>
<path fill="none" opacity="1.000000" stroke="#000000" stroke-linecap="round" stroke-linejoin="round" stroke-width="3.000000"
	d="
M754.500000,37.000000 
	C750.500000,37.000000 746.500000,37.000000 742.500000,37.000000 
"/>
<path fill="none" opacity="1.000000" stroke="#000000" stroke-linecap="round" stroke-linejoin="round" stroke-width="2.000000"
	d="
M513.500000,211.500000 
	C516.500000,211.500000 519.500000,211.500000 522.500000,211.500000 
"/>
<path fill="none" opacity="1.000000" stroke="#000000" stroke-linecap="round" stroke-linejoin="round" stroke-width="2.000000"
	d="
M368.500000,422.000000 
	C366.922546,420.941315 365.156311,421.770111 363.500000,421.500000 
"/>
<path fill="none" opacity="1.000000" stroke="#000000" stroke-linecap="round" stroke-linejoin="round" stroke-width="2.000000"
	d="
M134.500000,236.000000 
	C136.516617,239.039276 135.757797,240.177490 131.500000,240.500000 
"/>
<path fill="none" opacity="1.000000" stroke="#000000" stroke-linecap="round" stroke-linejoin="round" stroke-width="2.000000"
	d="
M262.500000,168.000000 
	C263.351257,169.417969 264.624542,170.648361 264.500000,172.500000 
"/>
<path fill="none" opacity="1.000000" stroke="#000000" stroke-linecap="round" stroke-linejoin="round" stroke-width="2.000000"
	d="
M635.500000,122.000000 
	C637.516602,125.039276 636.757812,126.177490 632.500000,126.500000 
"/>
<path fill="none" opacity="1.000000" stroke="#000000" stroke-linecap="round" stroke-linejoin="round" stroke-width="2.000000"
	d="
M361.000000,403.500000 
	C362.767303,405.075073 361.920502,406.323395 360.500000,407.500000 
"/>
<path fill="none" opacity="1.000000" stroke="#000000" stroke-linecap="round" stroke-linejoin="round" stroke-width="3.000000"
	d="
M366.000000,544.500000 
	C365.101562,547.091980 367.652435,550.330688 364.500000,552.500000 
"/>
<path fill="none" opacity="1.000000" stroke="#000000" stroke-linecap="round" stroke-linejoin="round" stroke-width="2.000000"
	d="
M919.500000,207.500000 
	C917.166687,207.500000 914.833313,207.500000 912.500000,207.500000 
"/>
<path fill="none" opacity="1.000000" stroke="#000000" stroke-linecap="round" stroke-linejoin="round" stroke-width="2.000000"
	d="
M250.500000,184.500000 
	C248.872910,187.070786 247.141693,189.016785 244.500000,185.500000 
"/>
<path fill="none" opacity="1.000000" stroke="#000000" stroke-linecap="round" stroke-linejoin="round" stroke-width="2.000000"
	d="
M253.500000,219.500000 
	C250.417450,218.889420 251.764343,221.231781 251.500000,222.500000 
"/>
<path fill="none" opacity="1.000000" stroke="#000000" stroke-linecap="round" stroke-linejoin="round" stroke-width="2.000000"
	d="
M710.500000,320.500000 
	C708.500000,320.500000 706.500000,320.500000 704.500000,320.500000 
"/>
<path fill="none" opacity="1.000000" stroke="#000000" stroke-linecap="round" stroke-linejoin="round" stroke-width="2.000000"
	d="
M816.500000,233.500000 
	C818.500000,233.500000 820.500000,233.500000 822.500000,233.500000 
"/>
<path fill="none" opacity="1.000000" stroke="#000000" stroke-linecap="round" stroke-linejoin="round" stroke-width="2.000000"
	d="
M791.500000,129.500000 
	C793.500000,129.500000 795.500000,129.500000 797.500000,129.500000 
"/>
<path fill="none" opacity="1.000000" stroke="#000000" stroke-linecap="round" stroke-linejoin="round" stroke-width="2.000000"
	d="
M622.500000,126.500000 
	C624.500000,126.500000 626.500000,126.500000 628.500000,126.500000 
"/>
<path fill="none" opacity="1.000000" stroke="#000000" stroke-linecap="round" stroke-linejoin="round" stroke-width="2.000000"
	d="
M46.500000,204.500000 
	C44.833332,204.500000 43.166668,204.500000 41.500000,204.500000 
"/>
<path fill="none" opacity="1.000000" stroke="#000000" stroke-linecap="round" stroke-linejoin="round" stroke-width="2.000000"
	d="
M135.500000,411.500000 
	C137.500000,411.500000 139.500000,411.500000 141.500000,411.500000 
"/>
<path fill="none" opacity="1.000000" stroke="#000000" stroke-linecap="round" stroke-linejoin="round" stroke-width="2.000000"
	d="
M132.500000,411.500000 
	C130.500000,411.500000 128.500000,411.500000 126.500000,411.500000 
"/>
<path fill="none" opacity="1.000000" stroke="#000000" stroke-linecap="round" stroke-linejoin="round" stroke-width="2.000000"
	d="
M516.500000,197.500000 
	C514.833313,197.500000 513.166687,197.500000 511.500000,197.500000 
"/>
<path fill="none" opacity="1.000000" stroke="#000000" stroke-linecap="round" stroke-linejoin="round" stroke-width="2.000000"
	d="
M914.500000,193.500000 
	C912.833313,193.500000 911.166687,193.500000 909.500000,193.500000 
"/>
<path fill="none" opacity="1.000000" stroke="#000000" stroke-linecap="round" stroke-linejoin="round" stroke-width="2.000000"
	d="
M614.500000,233.500000 
	C611.417480,232.889420 612.764343,235.231781 612.500000,236.500000 
"/>
<path fill="none" opacity="1.000000" stroke="#000000" stroke-linecap="round" stroke-linejoin="round" stroke-width="2.000000"
	d="
M232.500000,166.500000 
	C233.166672,167.833328 233.833328,169.166672 234.500000,170.500000 
"/>
</svg>